<?xml version="1.0" standalone="no"?>
<!DOCTYPE svg PUBLIC "-//W3C//DTD SVG 20010904//EN"
 "http://www.w3.org/TR/2001/REC-SVG-20010904/DTD/svg10.dtd">
<svg version="1.0" xmlns="http://www.w3.org/2000/svg"
 width="42.000000pt" height="42.000000pt" viewBox="0 0 42.000000 42.000000"
 preserveAspectRatio="xMidYMid meet">
<metadata>
Created by potrace 1.16, written by Peter Selinger 2001-2019
</metadata>
<g transform="translate(0.000000,42.000000) scale(0.100000,-0.100000)"
fill="#000000" stroke="none">
<path d="M0 210 l0 -210 210 0 210 0 0 210 0 210 -210 0 -210 0 0 -210z m298
157 c23 -24 39 -47 35 -51 -5 -4 -1 -6 6 -4 13 2 14 -16 12 -112 -2 -71 -7
-119 -14 -127 -14 -13 -235 -22 -254 -10 -10 6 -13 50 -13 162 0 188 -1 185
109 185 l77 0 42 -43z"/>
<path d="M120 231 c0 -72 3 -132 8 -135 4 -2 15 2 25 9 12 8 14 15 8 20 -6 3
-11 19 -11 36 0 22 5 29 20 29 18 0 20 7 20 73 0 43 5 78 12 85 9 9 2 12 -35
12 l-47 0 0 -129z"/>
</g>
</svg>
